<svg xmlns="http://www.w3.org/2000/svg" width="200" height="200" viewBox="0 0 200 200">
<defs><linearGradient id="lg" x1="0" y1="0" x2="0" y2="1">
<stop offset="0" stop-color="#4e8260"/><stop offset="1" stop-color="#2f5d3f"/></linearGradient></defs>
<circle cx="100" cy="100" r="92" fill="#15201a"/>
<circle cx="100" cy="100" r="92" fill="none" stroke="#bd9a55" stroke-width="3"/>
<circle cx="100" cy="100" r="78" fill="none" stroke="#bd9a55" stroke-width="1" stroke-opacity="0.5"/>
<path d="M100 13 109 22 100 31 91 22Z" fill="#8d2c22" stroke="none" stroke-width="0"/>
<path d="M178 91 187 100 178 109 169 100Z" fill="#8d2c22" stroke="none" stroke-width="0"/>
<path d="M100 169 109 178 100 187 91 178Z" fill="#8d2c22" stroke="none" stroke-width="0"/>
<path d="M22 91 31 100 22 109 13 100Z" fill="#8d2c22" stroke="none" stroke-width="0"/>
<g transform="translate(100,96)">
<path d="M0 34 C-26 16 -30 -18 0 -40 C30 -18 26 16 0 34Z" fill="url(#lg)"/>
<path d="M0 30 C0 6 0 -18 0 -36" stroke="#f5efe2" stroke-width="2.4" fill="none" opacity="0.8"/>
<path d="M0 8 L-13 -4 M0 -6 L12 -16 M0 -20 L-10 -28" stroke="#f5efe2" stroke-width="1.8" opacity="0.7"/>
<path d="M-44 40 Q0 28 44 40" stroke="#7ba081" stroke-width="3" fill="none" opacity="0.85"/>
<path d="M-40 48 Q0 38 40 48" stroke="#7ba081" stroke-width="2" fill="none" opacity="0.5"/>
</g>
<text x="100" y="150" text-anchor="middle" fill="#bd9a55" font-family="Georgia,serif" font-size="30" font-weight="bold" letter-spacing="2">RONAC</text>
</svg>