<svg xmlns="http://www.w3.org/2000/svg" width="800" height="600" viewBox="0 0 800 600">
<defs>
<linearGradient id="water" x1="0" y1="0" x2="0" y2="1">
<stop offset="0" stop-color="#15453a"/><stop offset="0.5" stop-color="#0e2a22"/><stop offset="1" stop-color="#0a1f1a"/>
</linearGradient>
<radialGradient id="sun" cx="0.7" cy="0" r="0.9">
<stop offset="0" stop-color="#74ccbe" stop-opacity="0.45"/><stop offset="0.5" stop-color="#34a596" stop-opacity="0.12"/><stop offset="1" stop-color="#34a596" stop-opacity="0"/>
</radialGradient>
</defs>
<rect width="800" height="600" fill="url(#water)"/>
<rect width="800" height="600" fill="url(#sun)"/><path d="M92.0 0 L162.0 0 L102.0 600 L32.0 600Z" fill="#d9efe7" opacity="0.04"/><path d="M220.0 0 L290.0 0 L230.0 600 L160.0 600Z" fill="#d9efe7" opacity="0.04"/><path d="M348.00000000000006 0 L418.00000000000006 0 L358.00000000000006 600 L288.00000000000006 600Z" fill="#d9efe7" opacity="0.04"/><path d="M475.99999999999994 0 L546.0 0 L485.99999999999994 600 L415.99999999999994 600Z" fill="#d9efe7" opacity="0.04"/><path d="M604.0 0 L674.0 0 L614.0 600 L544.0 600Z" fill="#d9efe7" opacity="0.04"/><path d="M732.0 0 L802.0 0 L742.0 600 L672.0 600Z" fill="#d9efe7" opacity="0.04"/><ellipse cx="160.0" cy="491.99999999999994" rx="130" ry="95" fill="#081512" opacity="0.4"/><ellipse cx="416.0" cy="540.0" rx="190" ry="75" fill="#081512" opacity="0.52"/><ellipse cx="624.0" cy="504.0" rx="150" ry="105" fill="#081512" opacity="0.64"/><path d="M30.0 600 Q14.863950093841435 536.4 7.295925140762151 494" stroke="#4f9b6a" stroke-width="3.2" fill="none" opacity="0.5" stroke-linecap="round"/><path d="M54.66666666666667 600 Q34.66820151538465 508.2 24.66896893974365 447" stroke="#79b394" stroke-width="3.2" fill="none" opacity="0.5" stroke-linecap="round"/><path d="M79.33333333333334 600 Q63.8780435822136 480.0 56.15039870665373 400" stroke="#79b394" stroke-width="3.2" fill="none" opacity="0.5" stroke-linecap="round"/><path d="M104.0 600 Q100.35674991455808 541.8 98.53512487183713 503" stroke="#4f9b6a" stroke-width="3.2" fill="none" opacity="0.5" stroke-linecap="round"/><path d="M128.66666666666669 600 Q138.54893368943885 513.6 143.49006720082494 456" stroke="#79b394" stroke-width="3.2" fill="none" opacity="0.5" stroke-linecap="round"/><path d="M153.33333333333331 600 Q172.0933328688281 485.4 181.4733326365755 409" stroke="#79b394" stroke-width="3.2" fill="none" opacity="0.5" stroke-linecap="round"/><path d="M178.0 600 Q196.81461113359546 547.2 206.2219167003932 512" stroke="#4f9b6a" stroke-width="3.2" fill="none" opacity="0.5" stroke-linecap="round"/><path d="M202.66666666666666 600 Q212.68708379582438 519.0 217.69729236040325 465" stroke="#79b394" stroke-width="3.2" fill="none" opacity="0.5" stroke-linecap="round"/><path d="M227.33333333333334 600 Q223.84679770887374 490.8 222.10352989664395 418" stroke="#79b394" stroke-width="3.2" fill="none" opacity="0.5" stroke-linecap="round"/><path d="M252.0 600 Q236.64628380472834 552.6 228.9694257070925 521" stroke="#4f9b6a" stroke-width="3.2" fill="none" opacity="0.5" stroke-linecap="round"/><path d="M276.66666666666663 600 Q256.66686253565257 524.4 246.6669604701455 474" stroke="#79b394" stroke-width="3.2" fill="none" opacity="0.5" stroke-linecap="round"/><path d="M301.3333333333333 600 Q286.09366165495265 496.2 278.4738258157623 427" stroke="#79b394" stroke-width="3.2" fill="none" opacity="0.5" stroke-linecap="round"/><path d="M326.0 600 Q322.6879164910338 558.0 321.03187473655066 530" stroke="#4f9b6a" stroke-width="3.2" fill="none" opacity="0.5" stroke-linecap="round"/><path d="M350.6666666666667 600 Q360.8398959541142 529.8 365.9265105978379 483" stroke="#79b394" stroke-width="3.2" fill="none" opacity="0.5" stroke-linecap="round"/><path d="M375.3333333333333 600 Q394.2072467222154 501.6 403.6442034166564 436" stroke="#79b394" stroke-width="3.2" fill="none" opacity="0.5" stroke-linecap="round"/><path d="M400.0 600 Q418.69790111049366 473.4 428.0468516657405 389" stroke="#4f9b6a" stroke-width="3.2" fill="none" opacity="0.5" stroke-linecap="round"/><path d="M424.6666666666667 600 Q434.3946404437427 535.2 439.2586273322807 492" stroke="#79b394" stroke-width="3.2" fill="none" opacity="0.5" stroke-linecap="round"/><path d="M449.3333333333333 600 Q445.5161617058496 507.0 443.60757589210766 445" stroke="#79b394" stroke-width="3.2" fill="none" opacity="0.5" stroke-linecap="round"/><path d="M474.0 600 Q458.43295842931406 478.8 450.64943764397105 398" stroke="#4f9b6a" stroke-width="3.2" fill="none" opacity="0.5" stroke-linecap="round"/><path d="M498.6666666666667 600 Q478.6711780452065 540.6 468.67343373447636 501" stroke="#79b394" stroke-width="3.2" fill="none" opacity="0.5" stroke-linecap="round"/><path d="M523.3333333333333 600 Q508.3135883978997 512.4 500.803715930183 454" stroke="#79b394" stroke-width="3.2" fill="none" opacity="0.5" stroke-linecap="round"/><path d="M548.0 600 Q545.020019483716 484.2 543.530029225574 407" stroke="#4f9b6a" stroke-width="3.2" fill="none" opacity="0.5" stroke-linecap="round"/><path d="M572.6666666666666 600 Q583.1279819698206 546.0 588.3586396213975 510" stroke="#79b394" stroke-width="3.2" fill="none" opacity="0.5" stroke-linecap="round"/><path d="M597.3333333333334 600 Q616.3158244062912 517.8 625.8070699427702 463" stroke="#79b394" stroke-width="3.2" fill="none" opacity="0.5" stroke-linecap="round"/><path d="M622.0 600 Q640.5759046815448 489.6 649.8638570223172 416" stroke="#4f9b6a" stroke-width="3.2" fill="none" opacity="0.5" stroke-linecap="round"/><path d="M646.6666666666666 600 Q656.0994467285506 551.4 660.8158367594925 519" stroke="#79b394" stroke-width="3.2" fill="none" opacity="0.5" stroke-linecap="round"/><path d="M671.3333333333334 600 Q667.1866049211982 523.2 665.1132407151306 472" stroke="#79b394" stroke-width="3.2" fill="none" opacity="0.5" stroke-linecap="round"/><path d="M696.0 600 Q680.2240342804917 495.0 672.3360514207375 425" stroke="#4f9b6a" stroke-width="3.2" fill="none" opacity="0.5" stroke-linecap="round"/><path d="M720.6666666666666 600 Q700.6811468239341 556.8 690.6883869025678 528" stroke="#79b394" stroke-width="3.2" fill="none" opacity="0.5" stroke-linecap="round"/><path d="M745.3333333333334 600 Q730.5377616317754 528.6 723.1399757809965 481" stroke="#79b394" stroke-width="3.2" fill="none" opacity="0.5" stroke-linecap="round"/><path d="M0 576 Q240.0 554 480.0 572 T800 568 V600 H0Z" fill="#07140f"/><circle cx="120.0" cy="120.0" r="2" fill="#d9efe7" opacity="0.25"/><circle cx="208.0" cy="438.0" r="3" fill="#d9efe7" opacity="0.25"/><circle cx="296.0" cy="396.0" r="4" fill="#d9efe7" opacity="0.25"/><circle cx="384.0" cy="354.00000000000006" r="2" fill="#d9efe7" opacity="0.25"/><circle cx="472.0" cy="312.0" r="3" fill="#d9efe7" opacity="0.25"/><circle cx="560.0" cy="270.0" r="4" fill="#d9efe7" opacity="0.25"/><circle cx="648.0" cy="228.0" r="2" fill="#d9efe7" opacity="0.25"/><rect x="14" y="14" width="772" height="572" fill="none" stroke="#74ccbe" stroke-opacity="0.35" stroke-width="1.5"/><g transform="translate(400.0,300.0)" text-anchor="middle" font-family="Georgia,serif"><text y="-4" fill="#d9efe7" font-size="30" font-style="italic">Lucrare #4</text><text y="28" fill="#74ccbe" font-size="13" letter-spacing="3" font-family="Arial">PLACEHOLDER · ÎNLOCUIEȘTE</text></g></svg>