<svg xmlns="http://www.w3.org/2000/svg" width="800" height="600" viewBox="0 0 800 600">
<defs>
<linearGradient id="water" x1="0" y1="0" x2="0" y2="1">
<stop offset="0" stop-color="#15453a"/><stop offset="0.5" stop-color="#0e2a22"/><stop offset="1" stop-color="#0a1f1a"/>
</linearGradient>
<radialGradient id="sun" cx="0.7" cy="0" r="0.9">
<stop offset="0" stop-color="#74ccbe" stop-opacity="0.45"/><stop offset="0.5" stop-color="#34a596" stop-opacity="0.12"/><stop offset="1" stop-color="#34a596" stop-opacity="0"/>
</radialGradient>
</defs>
<rect width="800" height="600" fill="url(#water)"/>
<rect width="800" height="600" fill="url(#sun)"/><path d="M91.0 0 L161.0 0 L101.0 600 L31.0 600Z" fill="#d9efe7" opacity="0.04"/><path d="M219.0 0 L289.0 0 L229.0 600 L159.0 600Z" fill="#d9efe7" opacity="0.04"/><path d="M347.00000000000006 0 L417.00000000000006 0 L357.00000000000006 600 L287.00000000000006 600Z" fill="#d9efe7" opacity="0.04"/><path d="M474.99999999999994 0 L545.0 0 L484.99999999999994 600 L414.99999999999994 600Z" fill="#d9efe7" opacity="0.04"/><path d="M603.0 0 L673.0 0 L613.0 600 L543.0 600Z" fill="#d9efe7" opacity="0.04"/><path d="M731.0 0 L801.0 0 L741.0 600 L671.0 600Z" fill="#d9efe7" opacity="0.04"/><ellipse cx="160.0" cy="491.99999999999994" rx="130" ry="95" fill="#081512" opacity="0.4"/><ellipse cx="416.0" cy="540.0" rx="190" ry="75" fill="#081512" opacity="0.52"/><ellipse cx="624.0" cy="504.0" rx="150" ry="105" fill="#081512" opacity="0.64"/><path d="M30.0 600 Q43.13973197437578 520.2 49.709597961563674 467" stroke="#4f9b6a" stroke-width="3.2" fill="none" opacity="0.5" stroke-linecap="round"/><path d="M54.66666666666667 600 Q74.43003134420668 492.0 84.31171368297669 420" stroke="#79b394" stroke-width="3.2" fill="none" opacity="0.5" stroke-linecap="round"/><path d="M79.33333333333334 600 Q96.42531149509895 553.8 104.97130057598176 523" stroke="#79b394" stroke-width="3.2" fill="none" opacity="0.5" stroke-linecap="round"/><path d="M104.0 600 Q110.38196724698705 525.6 113.57295087048057 476" stroke="#4f9b6a" stroke-width="3.2" fill="none" opacity="0.5" stroke-linecap="round"/><path d="M128.66666666666669 600 Q121.33708408162812 497.4 117.67229278910884 429" stroke="#79b394" stroke-width="3.2" fill="none" opacity="0.5" stroke-linecap="round"/><path d="M153.33333333333331 600 Q135.7394181338999 469.20000000000005 126.94246053418321 382" stroke="#79b394" stroke-width="3.2" fill="none" opacity="0.5" stroke-linecap="round"/><path d="M178.0 600 Q158.41644541697366 531.0 148.6246681254605 485" stroke="#4f9b6a" stroke-width="3.2" fill="none" opacity="0.5" stroke-linecap="round"/><path d="M202.66666666666666 600 Q190.30392442192596 502.8 184.12255329955562 438" stroke="#79b394" stroke-width="3.2" fill="none" opacity="0.5" stroke-linecap="round"/><path d="M227.33333333333334 600 Q228.00579427775608 474.6 228.34202474996744 391" stroke="#79b394" stroke-width="3.2" fill="none" opacity="0.5" stroke-linecap="round"/><path d="M252.0 600 Q265.39139524393204 536.4 272.08709286589806 494" stroke="#4f9b6a" stroke-width="3.2" fill="none" opacity="0.5" stroke-linecap="round"/><path d="M276.66666666666663 600 Q296.47881378056405 508.2 306.38488733751274 447" stroke="#79b394" stroke-width="3.2" fill="none" opacity="0.5" stroke-linecap="round"/><path d="M301.3333333333333 600 Q318.248269956192 480.0 326.7057382676213 400" stroke="#79b394" stroke-width="3.2" fill="none" opacity="0.5" stroke-linecap="round"/><path d="M326.0 600 Q332.0623671349141 541.8 335.09355070237115 503" stroke="#4f9b6a" stroke-width="3.2" fill="none" opacity="0.5" stroke-linecap="round"/><path d="M350.6666666666667 600 Q343.0252383229865 513.6 339.2045241511464 456" stroke="#79b394" stroke-width="3.2" fill="none" opacity="0.5" stroke-linecap="round"/><path d="M375.3333333333333 600 Q357.5819926617033 485.4 348.7063223258882 409" stroke="#79b394" stroke-width="3.2" fill="none" opacity="0.5" stroke-linecap="round"/><path d="M400.0 600 Q380.48747989063685 547.2 370.73121983595524 512" stroke="#4f9b6a" stroke-width="3.2" fill="none" opacity="0.5" stroke-linecap="round"/><path d="M424.6666666666667 600 Q412.57001021854103 519.0 406.5216819944782 465" stroke="#79b394" stroke-width="3.2" fill="none" opacity="0.5" stroke-linecap="round"/><path d="M449.3333333333333 600 Q450.34178708946956 490.8 450.84601396753766 418" stroke="#79b394" stroke-width="3.2" fill="none" opacity="0.5" stroke-linecap="round"/><path d="M474.0 600 Q487.6392724013627 552.6 494.45890860204406 521" stroke="#4f9b6a" stroke-width="3.2" fill="none" opacity="0.5" stroke-linecap="round"/><path d="M498.6666666666667 600 Q518.5219947833848 524.4 528.4496588417439 474" stroke="#79b394" stroke-width="3.2" fill="none" opacity="0.5" stroke-linecap="round"/><path d="M523.3333333333333 600 Q540.0664461040544 496.2 548.4330024894149 427" stroke="#79b394" stroke-width="3.2" fill="none" opacity="0.5" stroke-linecap="round"/><path d="M548.0 600 Q553.7410530265546 558.0 556.6115795398318 530" stroke="#4f9b6a" stroke-width="3.2" fill="none" opacity="0.5" stroke-linecap="round"/><path d="M572.6666666666666 600 Q564.715553004238 529.8 560.7399961730237 483" stroke="#79b394" stroke-width="3.2" fill="none" opacity="0.5" stroke-linecap="round"/><path d="M597.3333333333334 600 Q579.4295859769397 501.6 570.477712298743 436" stroke="#79b394" stroke-width="3.2" fill="none" opacity="0.5" stroke-linecap="round"/><path d="M622.0 600 Q602.5640310851227 473.4 592.846046627684 389" stroke="#4f9b6a" stroke-width="3.2" fill="none" opacity="0.5" stroke-linecap="round"/><path d="M646.6666666666666 600 Q634.8395160693641 535.2 628.9259407707129 492" stroke="#79b394" stroke-width="3.2" fill="none" opacity="0.5" stroke-linecap="round"/><path d="M671.3333333333334 600 Q672.6774947838429 507.0 673.3495755090976 445" stroke="#79b394" stroke-width="3.2" fill="none" opacity="0.5" stroke-linecap="round"/><path d="M696.0 600 Q709.8832933650449 478.8 716.8249400475672 398" stroke="#4f9b6a" stroke-width="3.2" fill="none" opacity="0.5" stroke-linecap="round"/><path d="M720.6666666666666 600 Q740.5595621442234 540.6 750.5060098830018 501" stroke="#79b394" stroke-width="3.2" fill="none" opacity="0.5" stroke-linecap="round"/><path d="M745.3333333333334 600 Q761.8798913452409 512.4 770.1531703511948 454" stroke="#79b394" stroke-width="3.2" fill="none" opacity="0.5" stroke-linecap="round"/><path d="M0 576 Q240.0 554 480.0 572 T800 568 V600 H0Z" fill="#07140f"/><circle cx="120.0" cy="120.0" r="2" fill="#d9efe7" opacity="0.25"/><circle cx="208.0" cy="438.0" r="3" fill="#d9efe7" opacity="0.25"/><circle cx="296.0" cy="396.0" r="4" fill="#d9efe7" opacity="0.25"/><circle cx="384.0" cy="354.00000000000006" r="2" fill="#d9efe7" opacity="0.25"/><circle cx="472.0" cy="312.0" r="3" fill="#d9efe7" opacity="0.25"/><circle cx="560.0" cy="270.0" r="4" fill="#d9efe7" opacity="0.25"/><circle cx="648.0" cy="228.0" r="2" fill="#d9efe7" opacity="0.25"/><rect x="14" y="14" width="772" height="572" fill="none" stroke="#74ccbe" stroke-opacity="0.35" stroke-width="1.5"/><g transform="translate(400.0,300.0)" text-anchor="middle" font-family="Georgia,serif"><text y="-4" fill="#d9efe7" font-size="30" font-style="italic">RONAC 2023</text><text y="28" fill="#74ccbe" font-size="13" letter-spacing="3" font-family="Arial">PLACEHOLDER · ÎNLOCUIEȘTE</text></g></svg>