<svg xmlns="http://www.w3.org/2000/svg" width="1280" height="720" viewBox="0 0 1280 720">
<defs>
<linearGradient id="water" x1="0" y1="0" x2="0" y2="1">
<stop offset="0" stop-color="#1c3326"/><stop offset="0.55" stop-color="#16271d"/><stop offset="1" stop-color="#10211a"/>
</linearGradient>
<linearGradient id="glow" x1="0.3" y1="0" x2="0.7" y2="1">
<stop offset="0" stop-color="#4e8260" stop-opacity="0.5"/><stop offset="1" stop-color="#2f5d3f" stop-opacity="0"/>
</linearGradient>
</defs>
<rect width="1280" height="720" fill="url(#water)"/>
<rect width="1280" height="720" fill="url(#glow)"/><ellipse cx="230.39999999999998" cy="561.6" rx="120" ry="90" fill="#0d1813" opacity="0.35"/><ellipse cx="640.0" cy="619.2" rx="180" ry="70" fill="#0d1813" opacity="0.44999999999999996"/><ellipse cx="947.2" cy="576.0" rx="140" ry="100" fill="#0d1813" opacity="0.55"/><path d="M40.0 720 Q40.0 684.0 40.0 660" stroke="#7ba081" stroke-width="3.4" fill="none" opacity="0.55" stroke-linecap="round"/><path d="M86.15384615384616 720 Q101.3003238803883 652.2 107.35891497100515 607" stroke="#7ba081" stroke-width="3.4" fill="none" opacity="0.55" stroke-linecap="round"/><path d="M132.30769230769232 720 Q148.6750459905546 620.4 155.2219874636995 554" stroke="#7ba081" stroke-width="3.4" fill="none" opacity="0.55" stroke-linecap="round"/><path d="M178.46153846153845 720 Q181.00169860661606 672.6 182.0177626646471 641" stroke="#7ba081" stroke-width="3.4" fill="none" opacity="0.55" stroke-linecap="round"/><path d="M224.6153846153846 720 Q210.9929396998419 640.8 205.54396173362483 588" stroke="#7ba081" stroke-width="3.4" fill="none" opacity="0.55" stroke-linecap="round"/><path d="M270.7692307692308 720 Q253.50859382529427 609.0 246.6043390477197 535" stroke="#7ba081" stroke-width="3.4" fill="none" opacity="0.55" stroke-linecap="round"/><path d="M316.9230769230769 720 Q311.89359795549626 661.2 309.88180636846397 622" stroke="#7ba081" stroke-width="3.4" fill="none" opacity="0.55" stroke-linecap="round"/><path d="M363.0769230769231 720 Q374.9026818538613 629.4 379.63298536463657 569" stroke="#7ba081" stroke-width="3.4" fill="none" opacity="0.55" stroke-linecap="round"/><path d="M409.2307692307692 720 Q427.0392176699901 681.6 434.16259704567847 656" stroke="#7ba081" stroke-width="3.4" fill="none" opacity="0.55" stroke-linecap="round"/><path d="M455.38461538461536 720 Q462.802748118967 649.8 465.7700012127076 603" stroke="#7ba081" stroke-width="3.4" fill="none" opacity="0.55" stroke-linecap="round"/><path d="M501.53846153846155 720 Q491.7460815424529 618.0 487.8291295440494 550" stroke="#7ba081" stroke-width="3.4" fill="none" opacity="0.55" stroke-linecap="round"/><path d="M547.6923076923076 720 Q529.6924839743949 670.2 522.4925544872299 637" stroke="#7ba081" stroke-width="3.4" fill="none" opacity="0.55" stroke-linecap="round"/><path d="M593.8461538461538 720 Q584.187841322146 638.4 580.3245163125429 584" stroke="#7ba081" stroke-width="3.4" fill="none" opacity="0.55" stroke-linecap="round"/><path d="M640.0 720 Q647.5630066628795 606.6 650.5882093280313 531" stroke="#7ba081" stroke-width="3.4" fill="none" opacity="0.55" stroke-linecap="round"/><path d="M686.1538461538462 720 Q703.9847785563538 658.8 711.1171515173569 618" stroke="#7ba081" stroke-width="3.4" fill="none" opacity="0.55" stroke-linecap="round"/><path d="M732.3076923076923 720 Q744.0128734305204 627.0 748.6949458796516 565" stroke="#7ba081" stroke-width="3.4" fill="none" opacity="0.55" stroke-linecap="round"/><path d="M778.4615384615385 720 Q773.2792787615673 679.2 771.2063748815788 652" stroke="#7ba081" stroke-width="3.4" fill="none" opacity="0.55" stroke-linecap="round"/><path d="M824.6153846153846 720 Q807.3102297615526 647.4 800.3881678200198 599" stroke="#7ba081" stroke-width="3.4" fill="none" opacity="0.55" stroke-linecap="round"/><path d="M870.7692307692307 720 Q857.2514603273405 615.6 851.8443521505844 546" stroke="#7ba081" stroke-width="3.4" fill="none" opacity="0.55" stroke-linecap="round"/><path d="M916.9230769230769 720 Q919.62086669701 667.8 920.6999826065833 633" stroke="#7ba081" stroke-width="3.4" fill="none" opacity="0.55" stroke-linecap="round"/><path d="M963.0769230769231 720 Q979.5099375900204 636.0 986.0831433952593 580" stroke="#7ba081" stroke-width="3.4" fill="none" opacity="0.55" stroke-linecap="round"/><path d="M1009.2307692307693 720 Q1024.2905707244183 604.2 1030.314491321878 527" stroke="#7ba081" stroke-width="3.4" fill="none" opacity="0.55" stroke-linecap="round"/><path d="M1055.3846153846152 720 Q1055.2252918173879 656.4 1055.161562390497 614" stroke="#7ba081" stroke-width="3.4" fill="none" opacity="0.55" stroke-linecap="round"/><path d="M1101.5384615384614 720 Q1086.3064942633084 624.6 1080.2137073532472 561" stroke="#7ba081" stroke-width="3.4" fill="none" opacity="0.55" stroke-linecap="round"/><path d="M1147.6923076923076 720 Q1131.3918971761884 676.8 1124.8717329697406 648" stroke="#7ba081" stroke-width="3.4" fill="none" opacity="0.55" stroke-linecap="round"/><path d="M1193.8461538461538 720 Q1191.463822344394 645.0 1190.5108897436899 595" stroke="#7ba081" stroke-width="3.4" fill="none" opacity="0.55" stroke-linecap="round"/><path d="M0 694 Q384.0 670 768.0 690 T1280 686 V720 H0Z" fill="#0c1610"/><rect x="14" y="14" width="1252" height="692" fill="none" stroke="#bd9a55" stroke-opacity="0.4" stroke-width="1.5"/><g opacity="0.9"><path d="M20 35 29 44 20 53 11 44Z" fill="none" stroke="#f5efe2" stroke-width="2"/><path d="M20 40 24 44 20 48 16 44Z" fill="#f5efe2" stroke="none" stroke-width="0"/><path d="M54 35 63 44 54 53 45 44Z" fill="none" stroke="#f5efe2" stroke-width="2"/><path d="M54 40 58 44 54 48 50 44Z" fill="#f5efe2" stroke="none" stroke-width="0"/><path d="M88 35 97 44 88 53 79 44Z" fill="none" stroke="#f5efe2" stroke-width="2"/><path d="M88 40 92 44 88 48 84 44Z" fill="#f5efe2" stroke="none" stroke-width="0"/><path d="M122 35 131 44 122 53 113 44Z" fill="none" stroke="#f5efe2" stroke-width="2"/><path d="M122 40 126 44 122 48 118 44Z" fill="#f5efe2" stroke="none" stroke-width="0"/><path d="M156 35 165 44 156 53 147 44Z" fill="none" stroke="#f5efe2" stroke-width="2"/><path d="M156 40 160 44 156 48 152 44Z" fill="#f5efe2" stroke="none" stroke-width="0"/><path d="M190 35 199 44 190 53 181 44Z" fill="none" stroke="#f5efe2" stroke-width="2"/><path d="M190 40 194 44 190 48 186 44Z" fill="#f5efe2" stroke="none" stroke-width="0"/><path d="M224 35 233 44 224 53 215 44Z" fill="none" stroke="#f5efe2" stroke-width="2"/><path d="M224 40 228 44 224 48 220 44Z" fill="#f5efe2" stroke="none" stroke-width="0"/><path d="M258 35 267 44 258 53 249 44Z" fill="none" stroke="#f5efe2" stroke-width="2"/><path d="M258 40 262 44 258 48 254 44Z" fill="#f5efe2" stroke="none" stroke-width="0"/><path d="M292 35 301 44 292 53 283 44Z" fill="none" stroke="#f5efe2" stroke-width="2"/><path d="M292 40 296 44 292 48 288 44Z" fill="#f5efe2" stroke="none" stroke-width="0"/><path d="M326 35 335 44 326 53 317 44Z" fill="none" stroke="#f5efe2" stroke-width="2"/><path d="M326 40 330 44 326 48 322 44Z" fill="#f5efe2" stroke="none" stroke-width="0"/><path d="M360 35 369 44 360 53 351 44Z" fill="none" stroke="#f5efe2" stroke-width="2"/><path d="M360 40 364 44 360 48 356 44Z" fill="#f5efe2" stroke="none" stroke-width="0"/><path d="M394 35 403 44 394 53 385 44Z" fill="none" stroke="#f5efe2" stroke-width="2"/><path d="M394 40 398 44 394 48 390 44Z" fill="#f5efe2" stroke="none" stroke-width="0"/><path d="M428 35 437 44 428 53 419 44Z" fill="none" stroke="#f5efe2" stroke-width="2"/><path d="M428 40 432 44 428 48 424 44Z" fill="#f5efe2" stroke="none" stroke-width="0"/><path d="M462 35 471 44 462 53 453 44Z" fill="none" stroke="#f5efe2" stroke-width="2"/><path d="M462 40 466 44 462 48 458 44Z" fill="#f5efe2" stroke="none" stroke-width="0"/><path d="M496 35 505 44 496 53 487 44Z" fill="none" stroke="#f5efe2" stroke-width="2"/><path d="M496 40 500 44 496 48 492 44Z" fill="#f5efe2" stroke="none" stroke-width="0"/><path d="M530 35 539 44 530 53 521 44Z" fill="none" stroke="#f5efe2" stroke-width="2"/><path d="M530 40 534 44 530 48 526 44Z" fill="#f5efe2" stroke="none" stroke-width="0"/><path d="M564 35 573 44 564 53 555 44Z" fill="none" stroke="#f5efe2" stroke-width="2"/><path d="M564 40 568 44 564 48 560 44Z" fill="#f5efe2" stroke="none" stroke-width="0"/><path d="M598 35 607 44 598 53 589 44Z" fill="none" stroke="#f5efe2" stroke-width="2"/><path d="M598 40 602 44 598 48 594 44Z" fill="#f5efe2" stroke="none" stroke-width="0"/><path d="M632 35 641 44 632 53 623 44Z" fill="none" stroke="#f5efe2" stroke-width="2"/><path d="M632 40 636 44 632 48 628 44Z" fill="#f5efe2" stroke="none" stroke-width="0"/><path d="M666 35 675 44 666 53 657 44Z" fill="none" stroke="#f5efe2" stroke-width="2"/><path d="M666 40 670 44 666 48 662 44Z" fill="#f5efe2" stroke="none" stroke-width="0"/><path d="M700 35 709 44 700 53 691 44Z" fill="none" stroke="#f5efe2" stroke-width="2"/><path d="M700 40 704 44 700 48 696 44Z" fill="#f5efe2" stroke="none" stroke-width="0"/><path d="M734 35 743 44 734 53 725 44Z" fill="none" stroke="#f5efe2" stroke-width="2"/><path d="M734 40 738 44 734 48 730 44Z" fill="#f5efe2" stroke="none" stroke-width="0"/><path d="M768 35 777 44 768 53 759 44Z" fill="none" stroke="#f5efe2" stroke-width="2"/><path d="M768 40 772 44 768 48 764 44Z" fill="#f5efe2" stroke="none" stroke-width="0"/><path d="M802 35 811 44 802 53 793 44Z" fill="none" stroke="#f5efe2" stroke-width="2"/><path d="M802 40 806 44 802 48 798 44Z" fill="#f5efe2" stroke="none" stroke-width="0"/><path d="M836 35 845 44 836 53 827 44Z" fill="none" stroke="#f5efe2" stroke-width="2"/><path d="M836 40 840 44 836 48 832 44Z" fill="#f5efe2" stroke="none" stroke-width="0"/><path d="M870 35 879 44 870 53 861 44Z" fill="none" stroke="#f5efe2" stroke-width="2"/><path d="M870 40 874 44 870 48 866 44Z" fill="#f5efe2" stroke="none" stroke-width="0"/><path d="M904 35 913 44 904 53 895 44Z" fill="none" stroke="#f5efe2" stroke-width="2"/><path d="M904 40 908 44 904 48 900 44Z" fill="#f5efe2" stroke="none" stroke-width="0"/><path d="M938 35 947 44 938 53 929 44Z" fill="none" stroke="#f5efe2" stroke-width="2"/><path d="M938 40 942 44 938 48 934 44Z" fill="#f5efe2" stroke="none" stroke-width="0"/><path d="M972 35 981 44 972 53 963 44Z" fill="none" stroke="#f5efe2" stroke-width="2"/><path d="M972 40 976 44 972 48 968 44Z" fill="#f5efe2" stroke="none" stroke-width="0"/><path d="M1006 35 1015 44 1006 53 997 44Z" fill="none" stroke="#f5efe2" stroke-width="2"/><path d="M1006 40 1010 44 1006 48 1002 44Z" fill="#f5efe2" stroke="none" stroke-width="0"/><path d="M1040 35 1049 44 1040 53 1031 44Z" fill="none" stroke="#f5efe2" stroke-width="2"/><path d="M1040 40 1044 44 1040 48 1036 44Z" fill="#f5efe2" stroke="none" stroke-width="0"/><path d="M1074 35 1083 44 1074 53 1065 44Z" fill="none" stroke="#f5efe2" stroke-width="2"/><path d="M1074 40 1078 44 1074 48 1070 44Z" fill="#f5efe2" stroke="none" stroke-width="0"/><path d="M1108 35 1117 44 1108 53 1099 44Z" fill="none" stroke="#f5efe2" stroke-width="2"/><path d="M1108 40 1112 44 1108 48 1104 44Z" fill="#f5efe2" stroke="none" stroke-width="0"/><path d="M1142 35 1151 44 1142 53 1133 44Z" fill="none" stroke="#f5efe2" stroke-width="2"/><path d="M1142 40 1146 44 1142 48 1138 44Z" fill="#f5efe2" stroke="none" stroke-width="0"/><path d="M1176 35 1185 44 1176 53 1167 44Z" fill="none" stroke="#f5efe2" stroke-width="2"/><path d="M1176 40 1180 44 1176 48 1172 44Z" fill="#f5efe2" stroke="none" stroke-width="0"/><path d="M1210 35 1219 44 1210 53 1201 44Z" fill="none" stroke="#f5efe2" stroke-width="2"/><path d="M1210 40 1214 44 1210 48 1206 44Z" fill="#f5efe2" stroke="none" stroke-width="0"/><path d="M1244 35 1253 44 1244 53 1235 44Z" fill="none" stroke="#f5efe2" stroke-width="2"/><path d="M1244 40 1248 44 1244 48 1240 44Z" fill="#f5efe2" stroke="none" stroke-width="0"/></g><g transform="translate(640.0,360.0)" text-anchor="middle" font-family="Georgia,serif"><text y="-6" fill="#f5efe2" font-size="30" font-style="italic">Aquascape câștigător</text><text y="26" fill="#7ba081" font-size="14" letter-spacing="3" font-family="Arial">PLACEHOLDER · ÎNLOCUIEȘTE</text></g></svg>