<svg xmlns="http://www.w3.org/2000/svg" width="800" height="600" viewBox="0 0 800 600">
<defs>
<linearGradient id="water" x1="0" y1="0" x2="0" y2="1">
<stop offset="0" stop-color="#15453a"/><stop offset="0.5" stop-color="#0e2a22"/><stop offset="1" stop-color="#0a1f1a"/>
</linearGradient>
<radialGradient id="sun" cx="0.7" cy="0" r="0.9">
<stop offset="0" stop-color="#74ccbe" stop-opacity="0.45"/><stop offset="0.5" stop-color="#34a596" stop-opacity="0.12"/><stop offset="1" stop-color="#34a596" stop-opacity="0"/>
</radialGradient>
</defs>
<rect width="800" height="600" fill="url(#water)"/>
<rect width="800" height="600" fill="url(#sun)"/><path d="M118.0 0 L188.0 0 L128.0 600 L58.0 600Z" fill="#d9efe7" opacity="0.04"/><path d="M246.0 0 L316.0 0 L256.0 600 L186.0 600Z" fill="#d9efe7" opacity="0.04"/><path d="M374.00000000000006 0 L444.00000000000006 0 L384.00000000000006 600 L314.00000000000006 600Z" fill="#d9efe7" opacity="0.04"/><path d="M501.99999999999994 0 L572.0 0 L511.99999999999994 600 L441.99999999999994 600Z" fill="#d9efe7" opacity="0.04"/><path d="M630.0 0 L700.0 0 L640.0 600 L570.0 600Z" fill="#d9efe7" opacity="0.04"/><path d="M758.0 0 L828.0 0 L768.0 600 L698.0 600Z" fill="#d9efe7" opacity="0.04"/><ellipse cx="160.0" cy="491.99999999999994" rx="130" ry="95" fill="#081512" opacity="0.4"/><ellipse cx="416.0" cy="540.0" rx="190" ry="75" fill="#081512" opacity="0.52"/><ellipse cx="624.0" cy="504.0" rx="150" ry="105" fill="#081512" opacity="0.64"/><path d="M30.0 600 Q24.411690036021483 525.6 21.617535054032224 476" stroke="#4f9b6a" stroke-width="3.2" fill="none" opacity="0.5" stroke-linecap="round"/><path d="M54.66666666666667 600 Q62.76366507899864 497.4 66.81216428516463 429" stroke="#79b394" stroke-width="3.2" fill="none" opacity="0.5" stroke-linecap="round"/><path d="M79.33333333333334 600 Q97.30749524956587 469.20000000000005 106.29457620768216 382" stroke="#79b394" stroke-width="3.2" fill="none" opacity="0.5" stroke-linecap="round"/><path d="M104.0 600 Q123.39779621690172 531.0 133.0966943253526 485" stroke="#4f9b6a" stroke-width="3.2" fill="none" opacity="0.5" stroke-linecap="round"/><path d="M128.66666666666669 600 Q140.3650105245019 502.8 146.21418245341954 438" stroke="#79b394" stroke-width="3.2" fill="none" opacity="0.5" stroke-linecap="round"/><path d="M153.33333333333331 600 Q151.83031092409712 474.6 151.07879971947904 391" stroke="#79b394" stroke-width="3.2" fill="none" opacity="0.5" stroke-linecap="round"/><path d="M178.0 600 Q164.00250624812915 536.4 157.00375937219374 494" stroke="#4f9b6a" stroke-width="3.2" fill="none" opacity="0.5" stroke-linecap="round"/><path d="M202.66666666666666 600 Q182.7579416005391 508.2 172.80357906747534 447" stroke="#79b394" stroke-width="3.2" fill="none" opacity="0.5" stroke-linecap="round"/><path d="M227.33333333333334 600 Q210.87676143395916 480.0 202.64847548427207 400" stroke="#79b394" stroke-width="3.2" fill="none" opacity="0.5" stroke-linecap="round"/><path d="M252.0 600 Q246.73536417268397 541.8 244.10304625902597 503" stroke="#4f9b6a" stroke-width="3.2" fill="none" opacity="0.5" stroke-linecap="round"/><path d="M276.66666666666663 600 Q285.07000740319944 513.6 289.2716777714659 456" stroke="#79b394" stroke-width="3.2" fill="none" opacity="0.5" stroke-linecap="round"/><path d="M301.3333333333333 600 Q319.45242817950253 485.4 328.5119756025872 409" stroke="#79b394" stroke-width="3.2" fill="none" opacity="0.5" stroke-linecap="round"/><path d="M326.0 600 Q345.31315553098557 547.2 354.96973329647835 512" stroke="#4f9b6a" stroke-width="3.2" fill="none" opacity="0.5" stroke-linecap="round"/><path d="M350.6666666666667 600 Q362.09060405986645 519.0 367.80257275646636 465" stroke="#79b394" stroke-width="3.2" fill="none" opacity="0.5" stroke-linecap="round"/><path d="M375.3333333333333 600 Q373.49519632877974 490.8 372.5761278265029 418" stroke="#79b394" stroke-width="3.2" fill="none" opacity="0.5" stroke-linecap="round"/><path d="M400.0 600 Q385.76429315261754 552.6 378.6464397289263 521" stroke="#4f9b6a" stroke-width="3.2" fill="none" opacity="0.5" stroke-linecap="round"/><path d="M424.6666666666667 600 Q404.72866534583477 524.4 394.7596646854188 474" stroke="#79b394" stroke-width="3.2" fill="none" opacity="0.5" stroke-linecap="round"/><path d="M449.3333333333333 600 Q433.07019110010356 496.2 424.93861998348865 427" stroke="#79b394" stroke-width="3.2" fill="none" opacity="0.5" stroke-linecap="round"/><path d="M474.0 600 Q469.0605267652676 558.0 466.5907901479014 530" stroke="#4f9b6a" stroke-width="3.2" fill="none" opacity="0.5" stroke-linecap="round"/><path d="M498.6666666666667 600 Q507.3739738741245 529.8 511.7276274778534 483" stroke="#79b394" stroke-width="3.2" fill="none" opacity="0.5" stroke-linecap="round"/><path d="M523.3333333333333 600 Q541.5922383478858 501.6 550.7216908551621 436" stroke="#79b394" stroke-width="3.2" fill="none" opacity="0.5" stroke-linecap="round"/><path d="M548.0 600 Q567.2230544900424 473.4 576.8345817350635 389" stroke="#4f9b6a" stroke-width="3.2" fill="none" opacity="0.5" stroke-linecap="round"/><path d="M572.6666666666666 600 Q583.8129677370199 535.2 589.3861182721964 492" stroke="#79b394" stroke-width="3.2" fill="none" opacity="0.5" stroke-linecap="round"/><path d="M597.3333333333334 600 Q595.1606014248518 507.0 594.074235470611 445" stroke="#79b394" stroke-width="3.2" fill="none" opacity="0.5" stroke-linecap="round"/><path d="M622.0 600 Q607.5301048791151 478.8 600.2951573186728 398" stroke="#4f9b6a" stroke-width="3.2" fill="none" opacity="0.5" stroke-linecap="round"/><path d="M646.6666666666666 600 Q626.7050261070787 540.6 616.7242058272848 501" stroke="#79b394" stroke-width="3.2" fill="none" opacity="0.5" stroke-linecap="round"/><path d="M671.3333333333334 600 Q655.2682187994543 512.4 647.2356615325148 454" stroke="#79b394" stroke-width="3.2" fill="none" opacity="0.5" stroke-linecap="round"/><path d="M696.0 600 Q691.3870858814521 484.2 689.0806288221781 407" stroke="#4f9b6a" stroke-width="3.2" fill="none" opacity="0.5" stroke-linecap="round"/><path d="M720.6666666666666 600 Q729.6754785521744 546.0 734.1798844949282 510" stroke="#79b394" stroke-width="3.2" fill="none" opacity="0.5" stroke-linecap="round"/><path d="M745.3333333333334 600 Q763.7268862265737 517.8 772.9236626731939 463" stroke="#79b394" stroke-width="3.2" fill="none" opacity="0.5" stroke-linecap="round"/><path d="M0 576 Q240.0 554 480.0 572 T800 568 V600 H0Z" fill="#07140f"/><circle cx="120.0" cy="120.0" r="2" fill="#d9efe7" opacity="0.25"/><circle cx="208.0" cy="438.0" r="3" fill="#d9efe7" opacity="0.25"/><circle cx="296.0" cy="396.0" r="4" fill="#d9efe7" opacity="0.25"/><circle cx="384.0" cy="354.00000000000006" r="2" fill="#d9efe7" opacity="0.25"/><circle cx="472.0" cy="312.0" r="3" fill="#d9efe7" opacity="0.25"/><circle cx="560.0" cy="270.0" r="4" fill="#d9efe7" opacity="0.25"/><circle cx="648.0" cy="228.0" r="2" fill="#d9efe7" opacity="0.25"/><rect x="14" y="14" width="772" height="572" fill="none" stroke="#74ccbe" stroke-opacity="0.35" stroke-width="1.5"/><g transform="translate(400.0,300.0)" text-anchor="middle" font-family="Georgia,serif"><text y="-4" fill="#d9efe7" font-size="30" font-style="italic">RONAC 2022</text><text y="28" fill="#74ccbe" font-size="13" letter-spacing="3" font-family="Arial">PLACEHOLDER · ÎNLOCUIEȘTE</text></g></svg>