<svg xmlns="http://www.w3.org/2000/svg" width="600" height="800" viewBox="0 0 600 800">
<rect width="600" height="800" fill="#efe6d3"/>
<rect x="12" y="12" width="576" height="776" fill="none" stroke="#bd9a55" stroke-width="2" stroke-opacity="0.6"/>
<g opacity="0.85"><path d="M20 31 29 40 20 49 11 40Z" fill="none" stroke="#8d2c22" stroke-width="2"/><path d="M20 36 24 40 20 44 16 40Z" fill="#8d2c22" stroke="none" stroke-width="0"/><path d="M54 31 63 40 54 49 45 40Z" fill="none" stroke="#8d2c22" stroke-width="2"/><path d="M54 36 58 40 54 44 50 40Z" fill="#8d2c22" stroke="none" stroke-width="0"/><path d="M88 31 97 40 88 49 79 40Z" fill="none" stroke="#8d2c22" stroke-width="2"/><path d="M88 36 92 40 88 44 84 40Z" fill="#8d2c22" stroke="none" stroke-width="0"/><path d="M122 31 131 40 122 49 113 40Z" fill="none" stroke="#8d2c22" stroke-width="2"/><path d="M122 36 126 40 122 44 118 40Z" fill="#8d2c22" stroke="none" stroke-width="0"/><path d="M156 31 165 40 156 49 147 40Z" fill="none" stroke="#8d2c22" stroke-width="2"/><path d="M156 36 160 40 156 44 152 40Z" fill="#8d2c22" stroke="none" stroke-width="0"/><path d="M190 31 199 40 190 49 181 40Z" fill="none" stroke="#8d2c22" stroke-width="2"/><path d="M190 36 194 40 190 44 186 40Z" fill="#8d2c22" stroke="none" stroke-width="0"/><path d="M224 31 233 40 224 49 215 40Z" fill="none" stroke="#8d2c22" stroke-width="2"/><path d="M224 36 228 40 224 44 220 40Z" fill="#8d2c22" stroke="none" stroke-width="0"/><path d="M258 31 267 40 258 49 249 40Z" fill="none" stroke="#8d2c22" stroke-width="2"/><path d="M258 36 262 40 258 44 254 40Z" fill="#8d2c22" stroke="none" stroke-width="0"/><path d="M292 31 301 40 292 49 283 40Z" fill="none" stroke="#8d2c22" stroke-width="2"/><path d="M292 36 296 40 292 44 288 40Z" fill="#8d2c22" stroke="none" stroke-width="0"/><path d="M326 31 335 40 326 49 317 40Z" fill="none" stroke="#8d2c22" stroke-width="2"/><path d="M326 36 330 40 326 44 322 40Z" fill="#8d2c22" stroke="none" stroke-width="0"/><path d="M360 31 369 40 360 49 351 40Z" fill="none" stroke="#8d2c22" stroke-width="2"/><path d="M360 36 364 40 360 44 356 40Z" fill="#8d2c22" stroke="none" stroke-width="0"/><path d="M394 31 403 40 394 49 385 40Z" fill="none" stroke="#8d2c22" stroke-width="2"/><path d="M394 36 398 40 394 44 390 40Z" fill="#8d2c22" stroke="none" stroke-width="0"/><path d="M428 31 437 40 428 49 419 40Z" fill="none" stroke="#8d2c22" stroke-width="2"/><path d="M428 36 432 40 428 44 424 40Z" fill="#8d2c22" stroke="none" stroke-width="0"/><path d="M462 31 471 40 462 49 453 40Z" fill="none" stroke="#8d2c22" stroke-width="2"/><path d="M462 36 466 40 462 44 458 40Z" fill="#8d2c22" stroke="none" stroke-width="0"/><path d="M496 31 505 40 496 49 487 40Z" fill="none" stroke="#8d2c22" stroke-width="2"/><path d="M496 36 500 40 496 44 492 40Z" fill="#8d2c22" stroke="none" stroke-width="0"/><path d="M530 31 539 40 530 49 521 40Z" fill="none" stroke="#8d2c22" stroke-width="2"/><path d="M530 36 534 40 530 44 526 40Z" fill="#8d2c22" stroke="none" stroke-width="0"/><path d="M564 31 573 40 564 49 555 40Z" fill="none" stroke="#8d2c22" stroke-width="2"/><path d="M564 36 568 40 564 44 560 40Z" fill="#8d2c22" stroke="none" stroke-width="0"/></g>
<g opacity="0.85"><path d="M20 761 29 770 20 779 11 770Z" fill="none" stroke="#8d2c22" stroke-width="2"/><path d="M20 766 24 770 20 774 16 770Z" fill="#8d2c22" stroke="none" stroke-width="0"/><path d="M54 761 63 770 54 779 45 770Z" fill="none" stroke="#8d2c22" stroke-width="2"/><path d="M54 766 58 770 54 774 50 770Z" fill="#8d2c22" stroke="none" stroke-width="0"/><path d="M88 761 97 770 88 779 79 770Z" fill="none" stroke="#8d2c22" stroke-width="2"/><path d="M88 766 92 770 88 774 84 770Z" fill="#8d2c22" stroke="none" stroke-width="0"/><path d="M122 761 131 770 122 779 113 770Z" fill="none" stroke="#8d2c22" stroke-width="2"/><path d="M122 766 126 770 122 774 118 770Z" fill="#8d2c22" stroke="none" stroke-width="0"/><path d="M156 761 165 770 156 779 147 770Z" fill="none" stroke="#8d2c22" stroke-width="2"/><path d="M156 766 160 770 156 774 152 770Z" fill="#8d2c22" stroke="none" stroke-width="0"/><path d="M190 761 199 770 190 779 181 770Z" fill="none" stroke="#8d2c22" stroke-width="2"/><path d="M190 766 194 770 190 774 186 770Z" fill="#8d2c22" stroke="none" stroke-width="0"/><path d="M224 761 233 770 224 779 215 770Z" fill="none" stroke="#8d2c22" stroke-width="2"/><path d="M224 766 228 770 224 774 220 770Z" fill="#8d2c22" stroke="none" stroke-width="0"/><path d="M258 761 267 770 258 779 249 770Z" fill="none" stroke="#8d2c22" stroke-width="2"/><path d="M258 766 262 770 258 774 254 770Z" fill="#8d2c22" stroke="none" stroke-width="0"/><path d="M292 761 301 770 292 779 283 770Z" fill="none" stroke="#8d2c22" stroke-width="2"/><path d="M292 766 296 770 292 774 288 770Z" fill="#8d2c22" stroke="none" stroke-width="0"/><path d="M326 761 335 770 326 779 317 770Z" fill="none" stroke="#8d2c22" stroke-width="2"/><path d="M326 766 330 770 326 774 322 770Z" fill="#8d2c22" stroke="none" stroke-width="0"/><path d="M360 761 369 770 360 779 351 770Z" fill="none" stroke="#8d2c22" stroke-width="2"/><path d="M360 766 364 770 360 774 356 770Z" fill="#8d2c22" stroke="none" stroke-width="0"/><path d="M394 761 403 770 394 779 385 770Z" fill="none" stroke="#8d2c22" stroke-width="2"/><path d="M394 766 398 770 394 774 390 770Z" fill="#8d2c22" stroke="none" stroke-width="0"/><path d="M428 761 437 770 428 779 419 770Z" fill="none" stroke="#8d2c22" stroke-width="2"/><path d="M428 766 432 770 428 774 424 770Z" fill="#8d2c22" stroke="none" stroke-width="0"/><path d="M462 761 471 770 462 779 453 770Z" fill="none" stroke="#8d2c22" stroke-width="2"/><path d="M462 766 466 770 462 774 458 770Z" fill="#8d2c22" stroke="none" stroke-width="0"/><path d="M496 761 505 770 496 779 487 770Z" fill="none" stroke="#8d2c22" stroke-width="2"/><path d="M496 766 500 770 496 774 492 770Z" fill="#8d2c22" stroke="none" stroke-width="0"/><path d="M530 761 539 770 530 779 521 770Z" fill="none" stroke="#8d2c22" stroke-width="2"/><path d="M530 766 534 770 530 774 526 770Z" fill="#8d2c22" stroke="none" stroke-width="0"/><path d="M564 761 573 770 564 779 555 770Z" fill="none" stroke="#8d2c22" stroke-width="2"/><path d="M564 766 568 770 564 774 560 770Z" fill="#8d2c22" stroke="none" stroke-width="0"/></g>
<circle cx="300.0" cy="336.0" r="95" fill="#2f5d3f" opacity="0.25"/>
<circle cx="300.0" cy="304.0" r="58" fill="#2f5d3f" opacity="0.55"/>
<path d="M182.0 624.0 Q300.0 448.00000000000006 418.0 624.0 V720.0 H182.0Z" fill="#2f5d3f" opacity="0.45"/>
<text x="300.0" y="744.0" text-anchor="middle" fill="#15201a" font-family="Arial" font-size="20" letter-spacing="2">PORTRET</text>
</svg>