<svg xmlns="http://www.w3.org/2000/svg" width="800" height="600" viewBox="0 0 800 600">
<defs>
<linearGradient id="water" x1="0" y1="0" x2="0" y2="1">
<stop offset="0" stop-color="#15453a"/><stop offset="0.5" stop-color="#0e2a22"/><stop offset="1" stop-color="#0a1f1a"/>
</linearGradient>
<radialGradient id="sun" cx="0.7" cy="0" r="0.9">
<stop offset="0" stop-color="#74ccbe" stop-opacity="0.45"/><stop offset="0.5" stop-color="#34a596" stop-opacity="0.12"/><stop offset="1" stop-color="#34a596" stop-opacity="0"/>
</radialGradient>
</defs>
<rect width="800" height="600" fill="url(#water)"/>
<rect width="800" height="600" fill="url(#sun)"/><path d="M93.0 0 L163.0 0 L103.0 600 L33.0 600Z" fill="#d9efe7" opacity="0.04"/><path d="M221.0 0 L291.0 0 L231.0 600 L161.0 600Z" fill="#d9efe7" opacity="0.04"/><path d="M349.00000000000006 0 L419.00000000000006 0 L359.00000000000006 600 L289.00000000000006 600Z" fill="#d9efe7" opacity="0.04"/><path d="M476.99999999999994 0 L547.0 0 L486.99999999999994 600 L416.99999999999994 600Z" fill="#d9efe7" opacity="0.04"/><path d="M605.0 0 L675.0 0 L615.0 600 L545.0 600Z" fill="#d9efe7" opacity="0.04"/><path d="M733.0 0 L803.0 0 L743.0 600 L673.0 600Z" fill="#d9efe7" opacity="0.04"/><ellipse cx="160.0" cy="491.99999999999994" rx="130" ry="95" fill="#081512" opacity="0.4"/><ellipse cx="416.0" cy="540.0" rx="190" ry="75" fill="#081512" opacity="0.52"/><ellipse cx="624.0" cy="504.0" rx="150" ry="105" fill="#081512" opacity="0.64"/><path d="M30.0 600 Q46.82941969615793 552.6 55.2441295442369 521" stroke="#4f9b6a" stroke-width="3.2" fill="none" opacity="0.5" stroke-linecap="round"/><path d="M54.66666666666667 600 Q74.49996287571605 524.4 84.41661098024073 474" stroke="#79b394" stroke-width="3.2" fill="none" opacity="0.5" stroke-linecap="round"/><path d="M79.33333333333334 600 Q92.84259694435636 496.2 99.59722874986787 427" stroke="#79b394" stroke-width="3.2" fill="none" opacity="0.5" stroke-linecap="round"/><path d="M104.0 600 Q104.83161324866582 558.0 105.24741987299873 530" stroke="#4f9b6a" stroke-width="3.2" fill="none" opacity="0.5" stroke-linecap="round"/><path d="M128.66666666666669 600 Q116.42950884781231 529.8 110.31092993838512 483" stroke="#79b394" stroke-width="3.2" fill="none" opacity="0.5" stroke-linecap="round"/><path d="M153.33333333333331 600 Q133.78273098003137 501.6 124.0074298033804 436" stroke="#79b394" stroke-width="3.2" fill="none" opacity="0.5" stroke-linecap="round"/><path d="M178.0 600 Q160.33090688559693 473.4 151.49636032839538 389" stroke="#4f9b6a" stroke-width="3.2" fill="none" opacity="0.5" stroke-linecap="round"/><path d="M202.66666666666666 600 Q195.1891333700619 535.2 191.45036672175956 492" stroke="#79b394" stroke-width="3.2" fill="none" opacity="0.5" stroke-linecap="round"/><path d="M227.33333333333334 600 Q233.5641606036009 507.0 236.6795742387347 445" stroke="#79b394" stroke-width="3.2" fill="none" opacity="0.5" stroke-linecap="round"/><path d="M252.0 600 Q269.0087324125713 478.8 277.51309861885693 398" stroke="#4f9b6a" stroke-width="3.2" fill="none" opacity="0.5" stroke-linecap="round"/><path d="M276.66666666666663 600 Q296.4538315991343 540.6 306.34741406536807 501" stroke="#79b394" stroke-width="3.2" fill="none" opacity="0.5" stroke-linecap="round"/><path d="M301.3333333333333 600 Q314.592717934977 512.4 321.2224102357988 454" stroke="#79b394" stroke-width="3.2" fill="none" opacity="0.5" stroke-linecap="round"/><path d="M326.0 600 Q326.4955085090672 484.2 326.7432627636008 407" stroke="#4f9b6a" stroke-width="3.2" fill="none" opacity="0.5" stroke-linecap="round"/><path d="M350.6666666666667 600 Q338.16525368880906 546.0 331.91454719988025 510" stroke="#79b394" stroke-width="3.2" fill="none" opacity="0.5" stroke-linecap="round"/><path d="M375.3333333333333 600 Q355.7146087320035 517.8 345.9052464313386 463" stroke="#79b394" stroke-width="3.2" fill="none" opacity="0.5" stroke-linecap="round"/><path d="M400.0 600 Q382.49095650623144 489.6 373.73643475934716 416" stroke="#4f9b6a" stroke-width="3.2" fill="none" opacity="0.5" stroke-linecap="round"/><path d="M424.6666666666667 600 Q417.5020810219301 551.4 413.9197881995618 519" stroke="#79b394" stroke-width="3.2" fill="none" opacity="0.5" stroke-linecap="round"/><path d="M449.3333333333333 600 Q455.88282211608714 523.2 459.1575665074641 472" stroke="#79b394" stroke-width="3.2" fill="none" opacity="0.5" stroke-linecap="round"/><path d="M474.0 600 Q491.1832362971299 495.0 499.77485444569487 425" stroke="#4f9b6a" stroke-width="3.2" fill="none" opacity="0.5" stroke-linecap="round"/><path d="M498.6666666666667 600 Q518.402105952159 556.8 528.2698255949051 528" stroke="#79b394" stroke-width="3.2" fill="none" opacity="0.5" stroke-linecap="round"/><path d="M523.3333333333333 600 Q536.3390901364756 528.6 542.8419685380468 481" stroke="#79b394" stroke-width="3.2" fill="none" opacity="0.5" stroke-linecap="round"/><path d="M548.0 600 Q548.1592636757188 500.4 548.2388955135781 434" stroke="#4f9b6a" stroke-width="3.2" fill="none" opacity="0.5" stroke-linecap="round"/><path d="M572.6666666666666 600 Q559.9045330197076 472.2 553.5234661962282 387" stroke="#79b394" stroke-width="3.2" fill="none" opacity="0.5" stroke-linecap="round"/><path d="M597.3333333333334 600 Q577.6520332317006 534.0 567.8113831808841 490" stroke="#79b394" stroke-width="3.2" fill="none" opacity="0.5" stroke-linecap="round"/><path d="M622.0 600 Q604.6559564102884 505.8 595.9839346154325 443" stroke="#4f9b6a" stroke-width="3.2" fill="none" opacity="0.5" stroke-linecap="round"/><path d="M646.6666666666666 600 Q639.8170542972744 477.6 636.3922481125783 396" stroke="#79b394" stroke-width="3.2" fill="none" opacity="0.5" stroke-linecap="round"/><path d="M671.3333333333334 600 Q678.1996319097312 539.4 681.6327811979303 499" stroke="#79b394" stroke-width="3.2" fill="none" opacity="0.5" stroke-linecap="round"/><path d="M696.0 600 Q713.3528820128333 511.2 722.02932301925 452" stroke="#4f9b6a" stroke-width="3.2" fill="none" opacity="0.5" stroke-linecap="round"/><path d="M720.6666666666666 600 Q740.344800559039 483.0 750.1838675052252 405" stroke="#79b394" stroke-width="3.2" fill="none" opacity="0.5" stroke-linecap="round"/><path d="M745.3333333333334 600 Q758.0817852563382 544.8 764.4560112178406 508" stroke="#79b394" stroke-width="3.2" fill="none" opacity="0.5" stroke-linecap="round"/><path d="M0 576 Q240.0 554 480.0 572 T800 568 V600 H0Z" fill="#07140f"/><circle cx="120.0" cy="120.0" r="2" fill="#d9efe7" opacity="0.25"/><circle cx="208.0" cy="438.0" r="3" fill="#d9efe7" opacity="0.25"/><circle cx="296.0" cy="396.0" r="4" fill="#d9efe7" opacity="0.25"/><circle cx="384.0" cy="354.00000000000006" r="2" fill="#d9efe7" opacity="0.25"/><circle cx="472.0" cy="312.0" r="3" fill="#d9efe7" opacity="0.25"/><circle cx="560.0" cy="270.0" r="4" fill="#d9efe7" opacity="0.25"/><circle cx="648.0" cy="228.0" r="2" fill="#d9efe7" opacity="0.25"/><rect x="14" y="14" width="772" height="572" fill="none" stroke="#74ccbe" stroke-opacity="0.35" stroke-width="1.5"/><g transform="translate(400.0,300.0)" text-anchor="middle" font-family="Georgia,serif"><text y="-4" fill="#d9efe7" font-size="30" font-style="italic">RONAC 2026</text><text y="28" fill="#74ccbe" font-size="13" letter-spacing="3" font-family="Arial">PLACEHOLDER · ÎNLOCUIEȘTE</text></g></svg>