<svg xmlns="http://www.w3.org/2000/svg" width="800" height="600" viewBox="0 0 800 600">
<defs>
<linearGradient id="water" x1="0" y1="0" x2="0" y2="1">
<stop offset="0" stop-color="#1c3326"/><stop offset="0.55" stop-color="#16271d"/><stop offset="1" stop-color="#10211a"/>
</linearGradient>
<linearGradient id="glow" x1="0.3" y1="0" x2="0.7" y2="1">
<stop offset="0" stop-color="#4e8260" stop-opacity="0.5"/><stop offset="1" stop-color="#2f5d3f" stop-opacity="0"/>
</linearGradient>
</defs>
<rect width="800" height="600" fill="url(#water)"/>
<rect width="800" height="600" fill="url(#glow)"/><ellipse cx="144.0" cy="468.0" rx="120" ry="90" fill="#0d1813" opacity="0.35"/><ellipse cx="400.0" cy="516.0" rx="180" ry="70" fill="#0d1813" opacity="0.44999999999999996"/><ellipse cx="592.0" cy="480.0" rx="140" ry="100" fill="#0d1813" opacity="0.55"/><path d="M40.0 600 Q40.0 564.0 40.0 540" stroke="#7ba081" stroke-width="3.4" fill="none" opacity="0.55" stroke-linecap="round"/><path d="M67.6923076923077 600 Q82.83878541884982 532.2 88.89737650946668 487" stroke="#7ba081" stroke-width="3.4" fill="none" opacity="0.55" stroke-linecap="round"/><path d="M95.38461538461539 600 Q111.75196906747766 500.4 118.29891054062256 434" stroke="#7ba081" stroke-width="3.4" fill="none" opacity="0.55" stroke-linecap="round"/><path d="M123.07692307692308 600 Q125.61708322200069 552.6 126.63314728003174 521" stroke="#7ba081" stroke-width="3.4" fill="none" opacity="0.55" stroke-linecap="round"/><path d="M150.76923076923077 600 Q137.14678585368807 520.8 131.697807887471 468" stroke="#7ba081" stroke-width="3.4" fill="none" opacity="0.55" stroke-linecap="round"/><path d="M178.46153846153845 600 Q161.20090151760195 489.0 154.29664674002737 415" stroke="#7ba081" stroke-width="3.4" fill="none" opacity="0.55" stroke-linecap="round"/><path d="M206.15384615384616 600 Q201.1243671862655 541.2 199.11257559923322 502" stroke="#7ba081" stroke-width="3.4" fill="none" opacity="0.55" stroke-linecap="round"/><path d="M233.84615384615384 600 Q245.67191262309206 509.4 250.4022161338673 449" stroke="#7ba081" stroke-width="3.4" fill="none" opacity="0.55" stroke-linecap="round"/><path d="M261.53846153846155 600 Q279.3469099776824 561.6 286.4702893533708 536" stroke="#7ba081" stroke-width="3.4" fill="none" opacity="0.55" stroke-linecap="round"/><path d="M289.2307692307692 600 Q296.64890196512084 529.8 299.61615505886147 483" stroke="#7ba081" stroke-width="3.4" fill="none" opacity="0.55" stroke-linecap="round"/><path d="M316.9230769230769 600 Q307.13069692706824 498.0 303.21374492866477 430" stroke="#7ba081" stroke-width="3.4" fill="none" opacity="0.55" stroke-linecap="round"/><path d="M344.61538461538464 600 Q326.615560897472 550.2 319.4156314103069 517" stroke="#7ba081" stroke-width="3.4" fill="none" opacity="0.55" stroke-linecap="round"/><path d="M372.3076923076923 600 Q362.6493797836845 518.4 358.7860547740814 464" stroke="#7ba081" stroke-width="3.4" fill="none" opacity="0.55" stroke-linecap="round"/><path d="M400.0 600 Q407.56300666287956 486.6 410.5882093280313 411" stroke="#7ba081" stroke-width="3.4" fill="none" opacity="0.55" stroke-linecap="round"/><path d="M427.6923076923077 600 Q445.5232400948153 538.8 452.65561305581843 498" stroke="#7ba081" stroke-width="3.4" fill="none" opacity="0.55" stroke-linecap="round"/><path d="M455.38461538461536 600 Q467.08979650744345 507.0 471.7718689565747 445" stroke="#7ba081" stroke-width="3.4" fill="none" opacity="0.55" stroke-linecap="round"/><path d="M483.0769230769231 600 Q477.89466337695194 559.2 475.82175949696347 532" stroke="#7ba081" stroke-width="3.4" fill="none" opacity="0.55" stroke-linecap="round"/><path d="M510.7692307692308 600 Q493.4640759153988 527.4 486.54201397386595 479" stroke="#7ba081" stroke-width="3.4" fill="none" opacity="0.55" stroke-linecap="round"/><path d="M538.4615384615385 600 Q524.9437680196482 495.6 519.5366598428922 426" stroke="#7ba081" stroke-width="3.4" fill="none" opacity="0.55" stroke-linecap="round"/><path d="M566.1538461538462 600 Q568.8516359277793 547.8 569.9307518373525 513" stroke="#7ba081" stroke-width="3.4" fill="none" opacity="0.55" stroke-linecap="round"/><path d="M593.8461538461538 600 Q610.2791683592511 516.0 616.85237416449 460" stroke="#7ba081" stroke-width="3.4" fill="none" opacity="0.55" stroke-linecap="round"/><path d="M621.5384615384615 600 Q636.5982630321106 484.2 642.6221836295701 407" stroke="#7ba081" stroke-width="3.4" fill="none" opacity="0.55" stroke-linecap="round"/><path d="M649.2307692307693 600 Q649.071445663542 536.4 649.007716236651 494" stroke="#7ba081" stroke-width="3.4" fill="none" opacity="0.55" stroke-linecap="round"/><path d="M676.9230769230769 600 Q661.6911096479238 504.6 655.5983227378626 441" stroke="#7ba081" stroke-width="3.4" fill="none" opacity="0.55" stroke-linecap="round"/><path d="M704.6153846153846 600 Q688.3149740992654 556.8 681.7948098928177 528" stroke="#7ba081" stroke-width="3.4" fill="none" opacity="0.55" stroke-linecap="round"/><path d="M732.3076923076923 600 Q729.9253608059323 525.0 728.9724282052284 475" stroke="#7ba081" stroke-width="3.4" fill="none" opacity="0.55" stroke-linecap="round"/><path d="M0 574 Q240.0 550 480.0 570 T800 566 V600 H0Z" fill="#0c1610"/><rect x="14" y="14" width="772" height="572" fill="none" stroke="#bd9a55" stroke-opacity="0.4" stroke-width="1.5"/><g opacity="0.9"><path d="M20 35 29 44 20 53 11 44Z" fill="none" stroke="#f5efe2" stroke-width="2"/><path d="M20 40 24 44 20 48 16 44Z" fill="#f5efe2" stroke="none" stroke-width="0"/><path d="M54 35 63 44 54 53 45 44Z" fill="none" stroke="#f5efe2" stroke-width="2"/><path d="M54 40 58 44 54 48 50 44Z" fill="#f5efe2" stroke="none" stroke-width="0"/><path d="M88 35 97 44 88 53 79 44Z" fill="none" stroke="#f5efe2" stroke-width="2"/><path d="M88 40 92 44 88 48 84 44Z" fill="#f5efe2" stroke="none" stroke-width="0"/><path d="M122 35 131 44 122 53 113 44Z" fill="none" stroke="#f5efe2" stroke-width="2"/><path d="M122 40 126 44 122 48 118 44Z" fill="#f5efe2" stroke="none" stroke-width="0"/><path d="M156 35 165 44 156 53 147 44Z" fill="none" stroke="#f5efe2" stroke-width="2"/><path d="M156 40 160 44 156 48 152 44Z" fill="#f5efe2" stroke="none" stroke-width="0"/><path d="M190 35 199 44 190 53 181 44Z" fill="none" stroke="#f5efe2" stroke-width="2"/><path d="M190 40 194 44 190 48 186 44Z" fill="#f5efe2" stroke="none" stroke-width="0"/><path d="M224 35 233 44 224 53 215 44Z" fill="none" stroke="#f5efe2" stroke-width="2"/><path d="M224 40 228 44 224 48 220 44Z" fill="#f5efe2" stroke="none" stroke-width="0"/><path d="M258 35 267 44 258 53 249 44Z" fill="none" stroke="#f5efe2" stroke-width="2"/><path d="M258 40 262 44 258 48 254 44Z" fill="#f5efe2" stroke="none" stroke-width="0"/><path d="M292 35 301 44 292 53 283 44Z" fill="none" stroke="#f5efe2" stroke-width="2"/><path d="M292 40 296 44 292 48 288 44Z" fill="#f5efe2" stroke="none" stroke-width="0"/><path d="M326 35 335 44 326 53 317 44Z" fill="none" stroke="#f5efe2" stroke-width="2"/><path d="M326 40 330 44 326 48 322 44Z" fill="#f5efe2" stroke="none" stroke-width="0"/><path d="M360 35 369 44 360 53 351 44Z" fill="none" stroke="#f5efe2" stroke-width="2"/><path d="M360 40 364 44 360 48 356 44Z" fill="#f5efe2" stroke="none" stroke-width="0"/><path d="M394 35 403 44 394 53 385 44Z" fill="none" stroke="#f5efe2" stroke-width="2"/><path d="M394 40 398 44 394 48 390 44Z" fill="#f5efe2" stroke="none" stroke-width="0"/><path d="M428 35 437 44 428 53 419 44Z" fill="none" stroke="#f5efe2" stroke-width="2"/><path d="M428 40 432 44 428 48 424 44Z" fill="#f5efe2" stroke="none" stroke-width="0"/><path d="M462 35 471 44 462 53 453 44Z" fill="none" stroke="#f5efe2" stroke-width="2"/><path d="M462 40 466 44 462 48 458 44Z" fill="#f5efe2" stroke="none" stroke-width="0"/><path d="M496 35 505 44 496 53 487 44Z" fill="none" stroke="#f5efe2" stroke-width="2"/><path d="M496 40 500 44 496 48 492 44Z" fill="#f5efe2" stroke="none" stroke-width="0"/><path d="M530 35 539 44 530 53 521 44Z" fill="none" stroke="#f5efe2" stroke-width="2"/><path d="M530 40 534 44 530 48 526 44Z" fill="#f5efe2" stroke="none" stroke-width="0"/><path d="M564 35 573 44 564 53 555 44Z" fill="none" stroke="#f5efe2" stroke-width="2"/><path d="M564 40 568 44 564 48 560 44Z" fill="#f5efe2" stroke="none" stroke-width="0"/><path d="M598 35 607 44 598 53 589 44Z" fill="none" stroke="#f5efe2" stroke-width="2"/><path d="M598 40 602 44 598 48 594 44Z" fill="#f5efe2" stroke="none" stroke-width="0"/><path d="M632 35 641 44 632 53 623 44Z" fill="none" stroke="#f5efe2" stroke-width="2"/><path d="M632 40 636 44 632 48 628 44Z" fill="#f5efe2" stroke="none" stroke-width="0"/><path d="M666 35 675 44 666 53 657 44Z" fill="none" stroke="#f5efe2" stroke-width="2"/><path d="M666 40 670 44 666 48 662 44Z" fill="#f5efe2" stroke="none" stroke-width="0"/><path d="M700 35 709 44 700 53 691 44Z" fill="none" stroke="#f5efe2" stroke-width="2"/><path d="M700 40 704 44 700 48 696 44Z" fill="#f5efe2" stroke="none" stroke-width="0"/><path d="M734 35 743 44 734 53 725 44Z" fill="none" stroke="#f5efe2" stroke-width="2"/><path d="M734 40 738 44 734 48 730 44Z" fill="#f5efe2" stroke="none" stroke-width="0"/><path d="M768 35 777 44 768 53 759 44Z" fill="none" stroke="#f5efe2" stroke-width="2"/><path d="M768 40 772 44 768 48 764 44Z" fill="#f5efe2" stroke="none" stroke-width="0"/></g><g transform="translate(400.0,300.0)" text-anchor="middle" font-family="Georgia,serif"><text y="-6" fill="#f5efe2" font-size="30" font-style="italic">Lucrare #7</text><text y="26" fill="#7ba081" font-size="14" letter-spacing="3" font-family="Arial">PLACEHOLDER · ÎNLOCUIEȘTE</text></g></svg>