<svg xmlns="http://www.w3.org/2000/svg" width="1280" height="720" viewBox="0 0 1280 720">
<defs>
<linearGradient id="water" x1="0" y1="0" x2="0" y2="1">
<stop offset="0" stop-color="#15453a"/><stop offset="0.5" stop-color="#0e2a22"/><stop offset="1" stop-color="#0a1f1a"/>
</linearGradient>
<radialGradient id="sun" cx="0.7" cy="0" r="0.9">
<stop offset="0" stop-color="#74ccbe" stop-opacity="0.45"/><stop offset="0.5" stop-color="#34a596" stop-opacity="0.12"/><stop offset="1" stop-color="#34a596" stop-opacity="0"/>
</radialGradient>
</defs>
<rect width="1280" height="720" fill="url(#water)"/>
<rect width="1280" height="720" fill="url(#sun)"/><path d="M128.0 0 L198.0 0 L138.0 720 L68.0 720Z" fill="#d9efe7" opacity="0.04"/><path d="M332.8 0 L402.8 0 L342.8 720 L272.8 720Z" fill="#d9efe7" opacity="0.04"/><path d="M537.6 0 L607.6 0 L547.6 720 L477.6 720Z" fill="#d9efe7" opacity="0.04"/><path d="M742.4 0 L812.4 0 L752.4 720 L682.4 720Z" fill="#d9efe7" opacity="0.04"/><path d="M947.2 0 L1017.2 0 L957.2 720 L887.2 720Z" fill="#d9efe7" opacity="0.04"/><path d="M1152.0 0 L1222.0 0 L1162.0 720 L1092.0 720Z" fill="#d9efe7" opacity="0.04"/><ellipse cx="256.0" cy="590.4" rx="130" ry="95" fill="#081512" opacity="0.4"/><ellipse cx="665.6" cy="648.0" rx="190" ry="75" fill="#081512" opacity="0.52"/><ellipse cx="998.4000000000001" cy="604.8" rx="150" ry="105" fill="#081512" opacity="0.64"/><path d="M30.0 720 Q30.0 678.0 30.0 650" stroke="#4f9b6a" stroke-width="3.2" fill="none" opacity="0.5" stroke-linecap="round"/><path d="M70.66666666666666 720 Q83.55102041142048 649.8 89.99319728379739 603" stroke="#79b394" stroke-width="3.2" fill="none" opacity="0.5" stroke-linecap="round"/><path d="M111.33333333333333 720 Q131.04232793310254 621.6 140.89682523298714 556" stroke="#79b394" stroke-width="3.2" fill="none" opacity="0.5" stroke-linecap="round"/><path d="M152.0 720 Q169.26418733297749 593.4 177.89628099946623 509" stroke="#4f9b6a" stroke-width="3.2" fill="none" opacity="0.5" stroke-linecap="round"/><path d="M192.66666666666666 720 Q199.36642966978476 655.2 202.71631117134382 612" stroke="#79b394" stroke-width="3.2" fill="none" opacity="0.5" stroke-linecap="round"/><path d="M233.33333333333334 720 Q226.31766877954095 627.0 222.80983650264474 565" stroke="#79b394" stroke-width="3.2" fill="none" opacity="0.5" stroke-linecap="round"/><path d="M274.0 720 Q256.56848455172826 598.8 247.85272682759236 518" stroke="#4f9b6a" stroke-width="3.2" fill="none" opacity="0.5" stroke-linecap="round"/><path d="M314.6666666666667 720 Q295.01761441418006 660.6 285.1930882879367 621" stroke="#79b394" stroke-width="3.2" fill="none" opacity="0.5" stroke-linecap="round"/><path d="M355.3333333333333 720 Q342.7080005758869 632.4 336.39533419716366 574" stroke="#79b394" stroke-width="3.2" fill="none" opacity="0.5" stroke-linecap="round"/><path d="M396.0 720 Q396.336278009687 604.2 396.5044170145305 527" stroke="#4f9b6a" stroke-width="3.2" fill="none" opacity="0.5" stroke-linecap="round"/><path d="M436.6666666666667 720 Q449.80639864104245 666.0 456.3762646282304 630" stroke="#79b394" stroke-width="3.2" fill="none" opacity="0.5" stroke-linecap="round"/><path d="M477.3333333333333 720 Q497.0966980108733 637.8 506.9783803496433 583" stroke="#79b394" stroke-width="3.2" fill="none" opacity="0.5" stroke-linecap="round"/><path d="M518.0 720 Q535.0919781617656 609.6 543.6379672426484 536" stroke="#4f9b6a" stroke-width="3.2" fill="none" opacity="0.5" stroke-linecap="round"/><path d="M558.6666666666666 720 Q565.0486339136537 671.4 568.2396175371472 639" stroke="#79b394" stroke-width="3.2" fill="none" opacity="0.5" stroke-linecap="round"/><path d="M599.3333333333334 720 Q592.0037507482948 643.2 588.3389594557756 592" stroke="#79b394" stroke-width="3.2" fill="none" opacity="0.5" stroke-linecap="round"/><path d="M640.0 720 Q622.4060848005666 615.0 613.6091272008499 545" stroke="#4f9b6a" stroke-width="3.2" fill="none" opacity="0.5" stroke-linecap="round"/><path d="M680.6666666666666 720 Q661.0831120836402 676.8 651.2913347921271 648" stroke="#79b394" stroke-width="3.2" fill="none" opacity="0.5" stroke-linecap="round"/><path d="M721.3333333333334 720 Q708.9705910885926 648.6 702.7892199662223 601" stroke="#79b394" stroke-width="3.2" fill="none" opacity="0.5" stroke-linecap="round"/><path d="M762.0 720 Q762.6724609444227 620.4 763.0086914166341 554" stroke="#4f9b6a" stroke-width="3.2" fill="none" opacity="0.5" stroke-linecap="round"/><path d="M802.6666666666666 720 Q816.0580619105987 592.2 822.7537595325647 507" stroke="#79b394" stroke-width="3.2" fill="none" opacity="0.5" stroke-linecap="round"/><path d="M843.3333333333334 720 Q863.1454804472307 654.0 873.0515540041795 610" stroke="#79b394" stroke-width="3.2" fill="none" opacity="0.5" stroke-linecap="round"/><path d="M884.0 720 Q900.9149366228587 625.8 909.372404934288 563" stroke="#4f9b6a" stroke-width="3.2" fill="none" opacity="0.5" stroke-linecap="round"/><path d="M924.6666666666666 720 Q930.7290338015807 597.6 933.7602173690377 516" stroke="#79b394" stroke-width="3.2" fill="none" opacity="0.5" stroke-linecap="round"/><path d="M965.3333333333334 720 Q957.6919049896533 659.4 953.8711908178132 619" stroke="#79b394" stroke-width="3.2" fill="none" opacity="0.5" stroke-linecap="round"/><path d="M1006.0 720 Q988.24865932837 631.2 979.372988992555 572" stroke="#4f9b6a" stroke-width="3.2" fill="none" opacity="0.5" stroke-linecap="round"/><path d="M1046.6666666666665 720 Q1027.1541465573034 603.0 1017.3978865026218 525" stroke="#79b394" stroke-width="3.2" fill="none" opacity="0.5" stroke-linecap="round"/><path d="M1087.3333333333333 720 Q1075.2366768852075 664.8 1069.1883486611448 628" stroke="#79b394" stroke-width="3.2" fill="none" opacity="0.5" stroke-linecap="round"/><path d="M1128.0 720 Q1129.0084537561363 636.6 1129.5126806342043 581" stroke="#4f9b6a" stroke-width="3.2" fill="none" opacity="0.5" stroke-linecap="round"/><path d="M1168.6666666666667 720 Q1182.3059390680294 608.4 1189.1255752687107 534" stroke="#79b394" stroke-width="3.2" fill="none" opacity="0.5" stroke-linecap="round"/><path d="M1209.3333333333333 720 Q1229.1886614500513 670.2 1239.1163255084105 637" stroke="#79b394" stroke-width="3.2" fill="none" opacity="0.5" stroke-linecap="round"/><path d="M0 696 Q384.0 674 768.0 692 T1280 688 V720 H0Z" fill="#07140f"/><circle cx="192.0" cy="144.0" r="2" fill="#d9efe7" opacity="0.25"/><circle cx="332.8" cy="525.6" r="3" fill="#d9efe7" opacity="0.25"/><circle cx="473.6" cy="475.20000000000005" r="4" fill="#d9efe7" opacity="0.25"/><circle cx="614.4" cy="424.80000000000007" r="2" fill="#d9efe7" opacity="0.25"/><circle cx="755.1999999999999" cy="374.40000000000003" r="3" fill="#d9efe7" opacity="0.25"/><circle cx="896.0000000000001" cy="324.0" r="4" fill="#d9efe7" opacity="0.25"/><circle cx="1036.8000000000002" cy="273.6" r="2" fill="#d9efe7" opacity="0.25"/><rect x="14" y="14" width="1252" height="692" fill="none" stroke="#74ccbe" stroke-opacity="0.35" stroke-width="1.5"/><g transform="translate(640.0,360.0)" text-anchor="middle" font-family="Georgia,serif"><text y="-4" fill="#d9efe7" font-size="30" font-style="italic">Aquascape câștigător</text><text y="28" fill="#74ccbe" font-size="13" letter-spacing="3" font-family="Arial">PLACEHOLDER · ÎNLOCUIEȘTE</text></g></svg>