<svg xmlns="http://www.w3.org/2000/svg" width="800" height="600" viewBox="0 0 800 600">
<defs>
<linearGradient id="water" x1="0" y1="0" x2="0" y2="1">
<stop offset="0" stop-color="#15453a"/><stop offset="0.5" stop-color="#0e2a22"/><stop offset="1" stop-color="#0a1f1a"/>
</linearGradient>
<radialGradient id="sun" cx="0.7" cy="0" r="0.9">
<stop offset="0" stop-color="#74ccbe" stop-opacity="0.45"/><stop offset="0.5" stop-color="#34a596" stop-opacity="0.12"/><stop offset="1" stop-color="#34a596" stop-opacity="0"/>
</radialGradient>
</defs>
<rect width="800" height="600" fill="url(#water)"/>
<rect width="800" height="600" fill="url(#sun)"/><path d="M80.0 0 L150.0 0 L90.0 600 L20.0 600Z" fill="#d9efe7" opacity="0.04"/><path d="M208.0 0 L278.0 0 L218.0 600 L148.0 600Z" fill="#d9efe7" opacity="0.04"/><path d="M336.00000000000006 0 L406.00000000000006 0 L346.00000000000006 600 L276.00000000000006 600Z" fill="#d9efe7" opacity="0.04"/><path d="M463.99999999999994 0 L534.0 0 L473.99999999999994 600 L403.99999999999994 600Z" fill="#d9efe7" opacity="0.04"/><path d="M592.0 0 L662.0 0 L602.0 600 L532.0 600Z" fill="#d9efe7" opacity="0.04"/><path d="M720.0 0 L790.0 0 L730.0 600 L660.0 600Z" fill="#d9efe7" opacity="0.04"/><ellipse cx="160.0" cy="491.99999999999994" rx="130" ry="95" fill="#081512" opacity="0.4"/><ellipse cx="416.0" cy="540.0" rx="190" ry="75" fill="#081512" opacity="0.52"/><ellipse cx="624.0" cy="504.0" rx="150" ry="105" fill="#081512" opacity="0.64"/><path d="M30.0 600 Q30.0 558.0 30.0 530" stroke="#4f9b6a" stroke-width="3.2" fill="none" opacity="0.5" stroke-linecap="round"/><path d="M54.66666666666667 600 Q67.5510204114205 529.8 73.9931972837974 483" stroke="#79b394" stroke-width="3.2" fill="none" opacity="0.5" stroke-linecap="round"/><path d="M79.33333333333334 600 Q99.04232793310254 501.6 108.89682523298714 436" stroke="#79b394" stroke-width="3.2" fill="none" opacity="0.5" stroke-linecap="round"/><path d="M104.0 600 Q121.26418733297749 473.4 129.89628099946623 389" stroke="#4f9b6a" stroke-width="3.2" fill="none" opacity="0.5" stroke-linecap="round"/><path d="M128.66666666666669 600 Q135.3664296697848 535.2 138.71631117134385 492" stroke="#79b394" stroke-width="3.2" fill="none" opacity="0.5" stroke-linecap="round"/><path d="M153.33333333333331 600 Q146.31766877954092 507.0 142.8098365026447 445" stroke="#79b394" stroke-width="3.2" fill="none" opacity="0.5" stroke-linecap="round"/><path d="M178.0 600 Q160.56848455172826 478.8 151.85272682759236 398" stroke="#4f9b6a" stroke-width="3.2" fill="none" opacity="0.5" stroke-linecap="round"/><path d="M202.66666666666666 600 Q183.01761441418 540.6 173.1930882879367 501" stroke="#79b394" stroke-width="3.2" fill="none" opacity="0.5" stroke-linecap="round"/><path d="M227.33333333333334 600 Q214.7080005758869 512.4 208.3953341971637 454" stroke="#79b394" stroke-width="3.2" fill="none" opacity="0.5" stroke-linecap="round"/><path d="M252.0 600 Q252.336278009687 484.2 252.5044170145305 407" stroke="#4f9b6a" stroke-width="3.2" fill="none" opacity="0.5" stroke-linecap="round"/><path d="M276.66666666666663 600 Q289.8063986410424 546.0 296.3762646282303 510" stroke="#79b394" stroke-width="3.2" fill="none" opacity="0.5" stroke-linecap="round"/><path d="M301.3333333333333 600 Q321.0966980108733 517.8 330.9783803496433 463" stroke="#79b394" stroke-width="3.2" fill="none" opacity="0.5" stroke-linecap="round"/><path d="M326.0 600 Q343.0919781617656 489.6 351.6379672426484 416" stroke="#4f9b6a" stroke-width="3.2" fill="none" opacity="0.5" stroke-linecap="round"/><path d="M350.6666666666667 600 Q357.0486339136537 551.4 360.23961753714724 519" stroke="#79b394" stroke-width="3.2" fill="none" opacity="0.5" stroke-linecap="round"/><path d="M375.3333333333333 600 Q368.0037507482948 523.2 364.3389594557755 472" stroke="#79b394" stroke-width="3.2" fill="none" opacity="0.5" stroke-linecap="round"/><path d="M400.0 600 Q382.4060848005666 495.0 373.6091272008499 425" stroke="#4f9b6a" stroke-width="3.2" fill="none" opacity="0.5" stroke-linecap="round"/><path d="M424.6666666666667 600 Q405.08311208364034 556.8 395.29133479212715 528" stroke="#79b394" stroke-width="3.2" fill="none" opacity="0.5" stroke-linecap="round"/><path d="M449.3333333333333 600 Q436.97059108859264 528.6 430.7892199662223 481" stroke="#79b394" stroke-width="3.2" fill="none" opacity="0.5" stroke-linecap="round"/><path d="M474.0 600 Q474.6724609444227 500.4 475.0086914166341 434" stroke="#4f9b6a" stroke-width="3.2" fill="none" opacity="0.5" stroke-linecap="round"/><path d="M498.6666666666667 600 Q512.0580619105987 472.2 518.7537595325647 387" stroke="#79b394" stroke-width="3.2" fill="none" opacity="0.5" stroke-linecap="round"/><path d="M523.3333333333333 600 Q543.1454804472306 534.0 553.0515540041794 490" stroke="#79b394" stroke-width="3.2" fill="none" opacity="0.5" stroke-linecap="round"/><path d="M548.0 600 Q564.9149366228587 505.8 573.372404934288 443" stroke="#4f9b6a" stroke-width="3.2" fill="none" opacity="0.5" stroke-linecap="round"/><path d="M572.6666666666666 600 Q578.7290338015807 477.6 581.7602173690377 396" stroke="#79b394" stroke-width="3.2" fill="none" opacity="0.5" stroke-linecap="round"/><path d="M597.3333333333334 600 Q589.6919049896533 539.4 585.8711908178132 499" stroke="#79b394" stroke-width="3.2" fill="none" opacity="0.5" stroke-linecap="round"/><path d="M622.0 600 Q604.24865932837 511.2 595.372988992555 452" stroke="#4f9b6a" stroke-width="3.2" fill="none" opacity="0.5" stroke-linecap="round"/><path d="M646.6666666666666 600 Q627.1541465573034 483.0 617.3978865026219 405" stroke="#79b394" stroke-width="3.2" fill="none" opacity="0.5" stroke-linecap="round"/><path d="M671.3333333333334 600 Q659.2366768852077 544.8 653.1883486611448 508" stroke="#79b394" stroke-width="3.2" fill="none" opacity="0.5" stroke-linecap="round"/><path d="M696.0 600 Q697.0084537561362 516.6 697.5126806342043 461" stroke="#4f9b6a" stroke-width="3.2" fill="none" opacity="0.5" stroke-linecap="round"/><path d="M720.6666666666666 600 Q734.3059390680293 488.4 741.1255752687106 414" stroke="#79b394" stroke-width="3.2" fill="none" opacity="0.5" stroke-linecap="round"/><path d="M745.3333333333334 600 Q765.1886614500515 550.2 775.1163255084106 517" stroke="#79b394" stroke-width="3.2" fill="none" opacity="0.5" stroke-linecap="round"/><path d="M0 576 Q240.0 554 480.0 572 T800 568 V600 H0Z" fill="#07140f"/><circle cx="120.0" cy="120.0" r="2" fill="#d9efe7" opacity="0.25"/><circle cx="208.0" cy="438.0" r="3" fill="#d9efe7" opacity="0.25"/><circle cx="296.0" cy="396.0" r="4" fill="#d9efe7" opacity="0.25"/><circle cx="384.0" cy="354.00000000000006" r="2" fill="#d9efe7" opacity="0.25"/><circle cx="472.0" cy="312.0" r="3" fill="#d9efe7" opacity="0.25"/><circle cx="560.0" cy="270.0" r="4" fill="#d9efe7" opacity="0.25"/><circle cx="648.0" cy="228.0" r="2" fill="#d9efe7" opacity="0.25"/><rect x="14" y="14" width="772" height="572" fill="none" stroke="#74ccbe" stroke-opacity="0.35" stroke-width="1.5"/><g transform="translate(400.0,300.0)" text-anchor="middle" font-family="Georgia,serif"><text y="-4" fill="#d9efe7" font-size="30" font-style="italic">Aquascape</text><text y="28" fill="#74ccbe" font-size="13" letter-spacing="3" font-family="Arial">PLACEHOLDER · ÎNLOCUIEȘTE</text></g></svg>